<svg fill="none" height="100%" width="100%" viewBox="0 0 1080 1080" xmlns:xlink="http://www.w3.org/1999/xlink" xmlns="http://www.w3.org/2000/svg"><defs><filter id="i0"><feColorMatrix values="0 0 0 0 1 0 0 0 0 1 0 0 0 0 1 0 0 0 1 0" type="matrix" /></filter><mask height="20000" width="20000" y="-10000" x="-10000" maskContentUnits="userSpaceOnUse" maskUnits="userSpaceOnUse" style="mask-type: alpha" mask-type="alpha" id="i1"><g filter="url(#i0)"><g transform="translate(490.817,473.265)"><animateTransform repeatCount="indefinite" type="translate" attributeName="transform" dur="1.268s" begin="0s" calcMode="spline" values="490.817 473.265; 500.817 494.265; 509.817 473.765; 502.817 509.765; 490.88 473.265; 500.817 494.39; 509.817 473.765; 502.817 509.765; 490.817 473.265" keyTimes="0; 0.157895; 0.236842; 0.368421; 0.5; 0.631579; 0.736842; 0.894737; 1" keySplines="0.333 0 0.667 1; 0.333 0 0.667 1; 0.333 0 0.667 1; 0.333 0 0.667 1; 0.333 0 0.667 1; 0.333 0 0.667 1; 0.333 0 0.667 1; 0.333 0 0.667 1" fill="freeze" /><g transform="rotate(0)"><animateTransform repeatCount="indefinite" type="rotate" attributeName="transform" dur="1.268s" begin="0s" calcMode="spline" values="0; 5; 9; 7; 0; 4; 9; 7; 0" keyTimes="0; 0.157895; 0.236842; 0.368421; 0.5; 0.631579; 0.736842; 0.894737; 1" keySplines="0.333 0 0.667 1; 0.333 0 0.667 1; 0.333 0 0.667 1; 0.333 0 0.667 1; 0.333 0 0.667 1; 0.333 0 0.667 1; 0.333 0 0.667 1; 0.333 0 0.667 1" fill="freeze" /><g transform="scale(1.17,1.17) translate(-104.25,-104.25)"><g id="i2" transform="matrix(1,0,0,1,104.25,104.25)"><path fill="#000000" d="M104,0C104,57.438,57.438,104,0,104C-57.438,104,-104,57.438,-104,0C-104,-57.438,-57.438,-104,0,-104C57.438,-104,104,-57.438,104,0Z" /></g><g id="i3" transform="matrix(1,0,0,1,104.351,141.55)"><path fill="#efc02c" d="M-100.601,-10.724C-100.601,-10.724,100.601,-10.724,100.601,-10.724C100.601,-10.724,98.165,1.132,92.333,10.724C92.333,10.724,-92.33,10.724,-92.33,10.724C-92.33,10.724,-99.703,-1.763,-100.601,-10.724Z" /></g></g></g></g></g></mask><filter id="i4"><feColorMatrix values="0 0 0 0 1 0 0 0 0 1 0 0 0 0 1 0 0 0 1 0" type="matrix" /></filter><mask height="20000" width="20000" y="-10000" x="-10000" maskContentUnits="userSpaceOnUse" maskUnits="userSpaceOnUse" style="mask-type: alpha" mask-type="alpha" id="i5"><g filter="url(#i4)"><g transform="translate(490.817,473.265)"><animateTransform repeatCount="indefinite" type="translate" attributeName="transform" dur="1.268s" begin="0s" calcMode="spline" values="490.817 473.265; 500.817 494.265; 509.817 473.765; 502.817 509.765; 490.88 473.265; 500.817 494.39; 509.817 473.765; 502.817 509.765; 490.817 473.265" keyTimes="0; 0.157895; 0.236842; 0.368421; 0.5; 0.631579; 0.736842; 0.894737; 1" keySplines="0.333 0 0.667 1; 0.333 0 0.667 1; 0.333 0 0.667 1; 0.333 0 0.667 1; 0.333 0 0.667 1; 0.333 0 0.667 1; 0.333 0 0.667 1; 0.333 0 0.667 1" fill="freeze" /><g transform="rotate(0)"><animateTransform repeatCount="indefinite" type="rotate" attributeName="transform" dur="1.268s" begin="0s" calcMode="spline" values="0; 5; 9; 7; 0; 4; 9; 7; 0" keyTimes="0; 0.157895; 0.236842; 0.368421; 0.5; 0.631579; 0.736842; 0.894737; 1" keySplines="0.333 0 0.667 1; 0.333 0 0.667 1; 0.333 0 0.667 1; 0.333 0 0.667 1; 0.333 0 0.667 1; 0.333 0 0.667 1; 0.333 0 0.667 1; 0.333 0 0.667 1" fill="freeze" /><g transform="scale(1.17,1.17) translate(-104.25,-104.25)"><g id="i6"><g transform="translate(107.388,20.336)"><g transform="rotate(-7)"><animateTransform repeatCount="indefinite" type="rotate" attributeName="transform" dur="1.268s" begin="0s" calcMode="spline" values="-7; -16; -18; -4; -4; -15; -15; -10; -7" keyTimes="0; 0.157895; 0.236842; 0.368421; 0.5; 0.631579; 0.736842; 0.894737; 1" keySplines="0.333 0 0.667 1; 0.333 0 0.667 1; 0.333 0 0.667 1; 0.333 0 0.667 1; 0.333 0 0.667 1; 0.333 0 0.667 1; 0.333 0 0.667 1; 0.333 0 0.667 1" fill="freeze" /><g transform="scale(0.863,0.863) translate(-73.302,-177.809)"><g transform="matrix(1.08,0,0,1.08,50.849,108.681)" id="i7"><g id="i3" transform="matrix(1,0,0,1,15.214,15.214)"><path fill="#ffffff" d="M-14.72,-0.442C-14.964,7.688,-8.571,14.476,-0.442,14.72C7.688,14.964,14.476,8.571,14.72,0.441C14.964,-7.688,8.571,-14.477,0.442,-14.72C-7.688,-14.964,-14.476,-8.572,-14.72,-0.442Z" /></g><g id="i2" transform="matrix(1,0,0,1,17.913,18.803)"><path fill="#000000" d="M-10.514,-0.316C-10.688,5.491,-6.122,10.34,-0.315,10.514C5.492,10.688,10.34,6.123,10.515,0.316C10.689,-5.491,6.122,-10.34,0.315,-10.514C-5.492,-10.688,-10.34,-6.123,-10.514,-0.316Z" /></g></g></g></g></g></g></g></g></g></g></mask><filter id="i8"><feColorMatrix values="0 0 0 0 1 0 0 0 0 1 0 0 0 0 1 0 0 0 1 0" type="matrix" /></filter><mask height="20000" width="20000" y="-10000" x="-10000" maskContentUnits="userSpaceOnUse" maskUnits="userSpaceOnUse" style="mask-type: alpha" mask-type="alpha" id="i9"><g filter="url(#i8)"><g transform="translate(490.817,473.265)"><animateTransform repeatCount="indefinite" type="translate" attributeName="transform" dur="1.268s" begin="0s" calcMode="spline" values="490.817 473.265; 500.817 494.265; 509.817 473.765; 502.817 509.765; 490.88 473.265; 500.817 494.39; 509.817 473.765; 502.817 509.765; 490.817 473.265" keyTimes="0; 0.157895; 0.236842; 0.368421; 0.5; 0.631579; 0.736842; 0.894737; 1" keySplines="0.333 0 0.667 1; 0.333 0 0.667 1; 0.333 0 0.667 1; 0.333 0 0.667 1; 0.333 0 0.667 1; 0.333 0 0.667 1; 0.333 0 0.667 1; 0.333 0 0.667 1" fill="freeze" /><g transform="rotate(0)"><animateTransform repeatCount="indefinite" type="rotate" attributeName="transform" dur="1.268s" begin="0s" calcMode="spline" values="0; 5; 9; 7; 0; 4; 9; 7; 0" keyTimes="0; 0.157895; 0.236842; 0.368421; 0.5; 0.631579; 0.736842; 0.894737; 1" keySplines="0.333 0 0.667 1; 0.333 0 0.667 1; 0.333 0 0.667 1; 0.333 0 0.667 1; 0.333 0 0.667 1; 0.333 0 0.667 1; 0.333 0 0.667 1; 0.333 0 0.667 1" fill="freeze" /><g transform="scale(1.17,1.17) translate(-104.25,-104.25)"><g id="i6"><g transform="translate(107.388,20.336)"><g transform="rotate(-7)"><animateTransform repeatCount="indefinite" type="rotate" attributeName="transform" dur="1.268s" begin="0s" calcMode="spline" values="-7; -16; -18; -4; -4; -15; -15; -10; -7" keyTimes="0; 0.157895; 0.236842; 0.368421; 0.5; 0.631579; 0.736842; 0.894737; 1" keySplines="0.333 0 0.667 1; 0.333 0 0.667 1; 0.333 0 0.667 1; 0.333 0 0.667 1; 0.333 0 0.667 1; 0.333 0 0.667 1; 0.333 0 0.667 1; 0.333 0 0.667 1" fill="freeze" /><g transform="scale(0.863,0.863) translate(-73.302,-177.809)"><g transform="matrix(1.08,0,0,1.08,104.121,110.279)" id="i10"><g id="i3" transform="matrix(1,0,0,1,15.214,15.214)"><path fill="#ffffff" d="M-14.72,-0.442C-14.964,7.688,-8.571,14.476,-0.442,14.72C7.688,14.964,14.476,8.571,14.72,0.441C14.964,-7.688,8.571,-14.477,0.442,-14.721C-7.688,-14.964,-14.476,-8.572,-14.72,-0.442Z" /></g><g id="i2" transform="matrix(1,0,0,1,17.913,18.803)"><path fill="#000000" d="M-10.514,-0.316C-10.688,5.491,-6.122,10.34,-0.315,10.514C5.492,10.688,10.34,6.123,10.515,0.316C10.689,-5.491,6.122,-10.34,0.315,-10.514C-5.492,-10.688,-10.34,-6.123,-10.514,-0.316Z" /></g></g></g></g></g></g></g></g></g></g></mask></defs><g id="i11"><g transform="translate(490.817,473.265)"><animateTransform repeatCount="indefinite" type="translate" attributeName="transform" dur="1.268s" begin="0s" calcMode="spline" values="490.817 473.265; 500.817 494.265; 509.817 473.765; 502.817 509.765; 490.88 473.265; 500.817 494.39; 509.817 473.765; 502.817 509.765; 490.817 473.265" keyTimes="0; 0.157895; 0.236842; 0.368421; 0.5; 0.631579; 0.736842; 0.894737; 1" keySplines="0.333 0 0.667 1; 0.333 0 0.667 1; 0.333 0 0.667 1; 0.333 0 0.667 1; 0.333 0 0.667 1; 0.333 0 0.667 1; 0.333 0 0.667 1; 0.333 0 0.667 1" fill="freeze" /><g transform="rotate(0)"><animateTransform repeatCount="indefinite" type="rotate" attributeName="transform" dur="1.268s" begin="0s" calcMode="spline" values="0; 5; 9; 7; 0; 4; 9; 7; 0" keyTimes="0; 0.157895; 0.236842; 0.368421; 0.5; 0.631579; 0.736842; 0.894737; 1" keySplines="0.333 0 0.667 1; 0.333 0 0.667 1; 0.333 0 0.667 1; 0.333 0 0.667 1; 0.333 0 0.667 1; 0.333 0 0.667 1; 0.333 0 0.667 1; 0.333 0 0.667 1" fill="freeze" /><g transform="scale(1.17,1.17) translate(-104.25,-104.25)"><g transform="matrix(-0.833,0.192,0.192,0.833,369.716,-199.452)" id="i12"><g id="i2" transform="matrix(1,0,0,1,273,334.428)"><path d="M53,-114.428C53,-114.428,-53,-27.858,16.429,114.428" stroke-miterlimit="10" stroke-linecap="round" stroke-width="60" stroke="#2e2e2e"><animate repeatCount="indefinite" attributeName="d" dur="1.268s" begin="0s" calcMode="spline" values="M53,-114.428C53,-114.428,-53,-27.858,16.429,114.428; M64.132,-113.395C64.132,-113.395,45.234,-4.784,-17.317,107.343; M78.948,-115.741C78.948,-115.741,130.628,-8.182,29.837,111.011; M102.647,-119.659C102.647,-119.659,193.571,-11.192,143.458,109.151; M115.647,-120.659C115.647,-120.659,204.509,-41.999,255.458,63.151; M106.529,-122.026C106.529,-122.026,109.281,-5.461,276.692,37.106; M85.113,-116.609C85.113,-116.609,23.811,26.962,225.498,65.464; M52.969,-107.625C52.969,-107.625,-58.902,16.785,101.969,117.909; M53,-114.428C53,-114.428,-53,-27.858,16.429,114.428" keyTimes="0; 0.157895; 0.236842; 0.368421; 0.5; 0.631579; 0.736842; 0.894737; 1" keySplines="0.333 0 0.667 1; 0.333 0 0.667 1; 0.333 0 0.667 1; 0.333 0 0.667 1; 0.333 0 0.667 1; 0.333 0 0.667 1; 0.333 0 0.667 1; 0.333 0 0.667 1" fill="freeze" /></path></g></g></g></g></g></g><g id="i11"><g transform="translate(490.817,473.265)"><animateTransform repeatCount="indefinite" type="translate" attributeName="transform" dur="1.268s" begin="0s" calcMode="spline" values="490.817 473.265; 500.817 494.265; 509.817 473.765; 502.817 509.765; 490.88 473.265; 500.817 494.39; 509.817 473.765; 502.817 509.765; 490.817 473.265" keyTimes="0; 0.157895; 0.236842; 0.368421; 0.5; 0.631579; 0.736842; 0.894737; 1" keySplines="0.333 0 0.667 1; 0.333 0 0.667 1; 0.333 0 0.667 1; 0.333 0 0.667 1; 0.333 0 0.667 1; 0.333 0 0.667 1; 0.333 0 0.667 1; 0.333 0 0.667 1" fill="freeze" /><g transform="rotate(0)"><animateTransform repeatCount="indefinite" type="rotate" attributeName="transform" dur="1.268s" begin="0s" calcMode="spline" values="0; 5; 9; 7; 0; 4; 9; 7; 0" keyTimes="0; 0.157895; 0.236842; 0.368421; 0.5; 0.631579; 0.736842; 0.894737; 1" keySplines="0.333 0 0.667 1; 0.333 0 0.667 1; 0.333 0 0.667 1; 0.333 0 0.667 1; 0.333 0 0.667 1; 0.333 0 0.667 1; 0.333 0 0.667 1; 0.333 0 0.667 1" fill="freeze" /><g transform="scale(1.17,1.17) translate(-104.25,-104.25)"><g transform="matrix(0.855,0,0,0.855,-5.53,164.589)" id="i13"><g id="i2" transform="matrix(1,0,0,1,73.867,159.374)"><path d="M64.867,-150.374C64.867,-150.374,-64.867,150.374,-64.867,150.374" stroke-miterlimit="10" stroke-linecap="round" stroke-width="25" stroke="#343434"><animate repeatCount="indefinite" attributeName="d" dur="1.268s" begin="0s" calcMode="spline" values="M64.867,-150.374C64.867,-150.374,-64.867,150.374,-64.867,150.374; M64.867,-150.374C64.867,-150.374,229.348,-42.792,21.748,76.266; M64.867,-150.374C64.867,-150.374,266.994,-118.981,83.845,53.015; M64.867,-150.374C64.867,-150.374,234.279,-157.507,134.413,42.272; M64.867,-150.374C64.867,-150.374,168.576,-89.147,170.183,98.091; M64.867,-150.374C64.867,-150.374,138.733,-13.579,202.683,148.591; M64.867,-150.374C64.867,-150.374,181.129,-42.731,135.818,124.196; M64.867,-150.374C64.867,-150.374,181.634,-1.555,86.961,148.134; M64.867,-150.374C64.867,-150.374,92.515,-29.906,-2.158,119.783; M64.867,-150.374C64.867,-150.374,-64.867,150.374,-64.867,150.374" keyTimes="0; 0.210526; 0.289474; 0.368421; 0.447368; 0.5; 0.631579; 0.736842; 0.894737; 1" keySplines="0.333 0 0.667 1; 0.333 0 0.667 1; 0.333 0 0.667 1; 0.333 0 0.667 1; 0.333 0 0.667 1; 0.333 0 0.667 1; 0.333 0 0.667 1; 0.333 0 0.667 1; 0.333 0 0.667 1" fill="freeze" /></path></g></g></g></g></g></g><g transform="matrix(1,0,0,1,361.714,849.143)" id="i14"><g id="i2"><path d="M5.5,8.5C5.5,8.5,29.929,8.5,29.929,8.5" stroke-miterlimit="10" stroke-linecap="round" stroke-width="25" stroke="#efc02c"><animate repeatCount="indefinite" attributeName="d" dur="1.268s" begin="0s" calcMode="spline" values="M5.5,8.5C5.5,8.5,29.929,8.5,29.929,8.5; M20.375,-11C20.375,-11,36.304,4.25,36.304,4.25; M46.162,-34.541C46.162,-34.541,58.429,-15.018,58.429,-15.018; M55.75,-43C55.75,-43,67.179,-22.5,67.179,-22.5; M74.75,-84C74.75,-84,91.679,-66.5,91.679,-66.5; M124.25,-71C124.25,-71,150.179,-69.5,150.179,-69.5; M177.25,-53.5C177.25,-53.5,194.572,-51.857,200.929,-58.75; M216.861,-29.907C216.861,-29.907,231.378,-30.328,238.688,-40.343; M232.75,-23C232.75,-23,246.286,-24.143,253.929,-35.25; M283.75,8.5C283.75,8.5,296.786,3.857,300.429,-8.25; M194.25,9C194.25,9,203.536,9,218.179,9; M109.25,9.143C109.25,9.143,118.536,9.143,133.179,9.143; M30.25,9.25C30.25,9.25,39.536,9.25,54.179,9.25; M9,9C9,9,33.429,9,33.429,9" keyTimes="0; 0.078947; 0.131579; 0.157895; 0.236842; 0.289474; 0.368421; 0.421053; 0.447368; 0.5; 0.631579; 0.736842; 0.894737; 1" keySplines="0.333 0 0.833 0.833; 0 0 1 1; 0.167 0.167 0.667 1; 0.333 0 0.667 1; 0.333 0 0.667 1; 0.333 0 0.667 1; 0.333 0 0.833 0.833; 0.167 0.167 0.667 1; 0.333 0 0.667 1; 0.333 0 0.667 1; 0.333 0 0.667 1; 0.333 0 0.667 1; 0.333 0 0.667 1" fill="freeze" /></path></g></g><g id="i11"><g transform="translate(490.817,473.265)"><animateTransform repeatCount="indefinite" type="translate" attributeName="transform" dur="1.268s" begin="0s" calcMode="spline" values="490.817 473.265; 500.817 494.265; 509.817 473.765; 502.817 509.765; 490.88 473.265; 500.817 494.39; 509.817 473.765; 502.817 509.765; 490.817 473.265" keyTimes="0; 0.157895; 0.236842; 0.368421; 0.5; 0.631579; 0.736842; 0.894737; 1" keySplines="0.333 0 0.667 1; 0.333 0 0.667 1; 0.333 0 0.667 1; 0.333 0 0.667 1; 0.333 0 0.667 1; 0.333 0 0.667 1; 0.333 0 0.667 1; 0.333 0 0.667 1" fill="freeze" /><g transform="rotate(0)"><animateTransform repeatCount="indefinite" type="rotate" attributeName="transform" dur="1.268s" begin="0s" calcMode="spline" values="0; 5; 9; 7; 0; 4; 9; 7; 0" keyTimes="0; 0.157895; 0.236842; 0.368421; 0.5; 0.631579; 0.736842; 0.894737; 1" keySplines="0.333 0 0.667 1; 0.333 0 0.667 1; 0.333 0 0.667 1; 0.333 0 0.667 1; 0.333 0 0.667 1; 0.333 0 0.667 1; 0.333 0 0.667 1; 0.333 0 0.667 1" fill="freeze" /><g transform="scale(1.17,1.17) translate(-104.25,-104.25)"><g transform="matrix(0.855,0,0,0.827,60.298,137.897)" id="i15"><g id="i2" transform="matrix(1,0,0,1,122.899,192.732)"><path d="M-77.899,-147.732C-77.899,-147.732,-11.47,-84.731,77.899,147.732" stroke-miterlimit="10" stroke-linecap="round" stroke-width="25" stroke="#343434"><animate repeatCount="indefinite" attributeName="d" dur="1.268s" begin="0s" calcMode="spline" values="M-77.899,-147.732C-77.899,-147.732,-11.47,-84.731,77.899,147.732; M-77.111,-146.108C-77.111,-146.108,62.788,-79.786,15.585,138.061; M-76.718,-145.296C-76.718,-145.296,74.199,-44.287,-23.034,151.804; M-74.355,-140.425C-74.355,-140.425,44.534,-23.885,-63.599,147.155; M-74.355,-140.425C-74.355,-140.425,6.682,-59.164,-107.714,127.755; M-74.355,-140.425C-74.355,-140.425,-33.417,-52.94,-159.82,147.988; M-74.355,-140.425C-74.355,-140.425,-109.318,-26.247,-192.32,161.946; M-74.355,-140.425C-74.355,-140.425,28.085,-46.186,-146.268,94.357; M-74.355,-140.425C-74.355,-140.425,149.631,-103.746,-50.932,75.605; M-74.355,-140.425C-74.355,-140.425,64.409,-171.179,43.987,60.431; M-77.899,-147.732C-77.899,-147.732,-11.47,-84.731,77.899,147.732" keyTimes="0; 0.157895; 0.236842; 0.289474; 0.368421; 0.447368; 0.5; 0.631579; 0.736842; 0.894737; 1" keySplines="0.333 0 0.667 1; 0.333 0 0.667 1; 0.333 0 0.667 1; 0.333 0 0.667 1; 0.333 0 0.667 1; 0.333 0 0.667 1; 0.333 0 0.667 1; 0.333 0 0.667 1; 0.333 0 0.667 1; 0.333 0 0.667 1" fill="freeze" /></path></g></g></g></g></g></g><g transform="matrix(1,0,0,1,598.571,789.999)" id="i16"><g id="i2" transform="matrix(1,0,0,1,54.857,56.572)"><path d="M-11.357,7.072C-11.357,7.072,8.072,3.357,9.357,-15.072" stroke-miterlimit="10" stroke-linecap="round" stroke-width="18" stroke="#efc02c"><animate repeatCount="indefinite" attributeName="d" dur="1.268s" begin="0s" calcMode="spline" values="M-11.357,7.072C-11.357,7.072,8.072,3.357,9.357,-15.072; M-81.394,14.891C-81.394,14.891,-57.761,13.429,-57.428,8.651; M-96.93,17.415C-96.93,17.415,-72.79,16.884,-72.669,15.15; M-102.857,16.428C-102.857,16.428,-78.428,16.428,-78.428,16.428; M-166.857,11.428C-166.857,11.428,-142.428,11.428,-142.428,11.428; M-182.107,8.393C-182.107,8.393,-157.678,8.393,-157.678,8.393; M-198.357,11.357C-198.357,11.357,-173.928,11.357,-173.928,11.357; M-209.487,16.32C-209.487,16.32,-185.058,16.32,-185.058,16.32; M-239.357,11.214C-239.357,11.214,-214.928,11.214,-214.928,11.214; M-269.357,11.427C-269.357,11.427,-244.928,11.427,-244.928,11.427; M-288.857,12.354C-288.857,12.354,-264.428,12.354,-264.428,12.354; M-287.009,6.686C-287.009,6.686,-263.776,8.714,-263.776,8.714; M-280.726,-5.487C-280.726,-5.487,-260.8,2.149,-260.8,2.149; M-259.233,-35.819C-259.233,-35.819,-245.001,-18.528,-245.001,-18.528; M-255.357,-41.146C-255.357,-41.146,-238.928,-22.646,-238.928,-22.646; M-241.209,-46.035C-241.209,-46.035,-224.002,-28.831,-224.002,-28.831; M-191.357,-70.146C-191.357,-70.146,-171.928,-56.646,-171.928,-56.646; M-178.857,-72.646C-178.857,-72.646,-158.428,-62.146,-158.428,-62.146; M-166.857,-69.271C-166.857,-69.271,-148.178,-52.396,-148.178,-52.396; M-144.857,-56.896C-144.857,-56.896,-122.928,-50.646,-122.928,-50.646; M-125.857,-54.521C-125.857,-54.521,-103.178,-46.646,-103.178,-46.646; M-102.857,-46.146C-102.857,-46.146,-79.428,-36.646,-79.428,-36.646; M-81.607,-38.146C-81.607,-38.146,-59.178,-38.146,-59.178,-38.146; M-78.357,-31.146C-78.357,-31.146,-56.928,-40.646,-56.928,-40.646; M-11.357,7.072C-11.357,7.072,8.072,3.357,9.357,-15.072" keyTimes="0; 0.105263; 0.131579; 0.157895; 0.236842; 0.263158; 0.289474; 0.315789; 0.368421; 0.447368; 0.5; 0.526316; 0.552632; 0.605263; 0.631579; 0.657895; 0.710526; 0.736842; 0.763158; 0.789474; 0.815789; 0.842105; 0.868421; 0.894737; 1" keySplines="0.333 0 0.833 0.833; 0 0 1 1; 0.167 0.167 0.667 1; 0.333 0 0.667 1; 0.333 0 0.833 0.833; 0.167 0.167 0.667 1; 0.333 0 0.833 0.833; 0.167 0.167 0.667 1; 0.333 0 0.667 1; 0.333 0 0.667 1; 0.333 0 0.833 0.833; 0 0 1 1; 0 0 1 1; 0.167 0.167 0.667 1; 0.333 0 0.833 0.833; 0.167 0.167 0.667 1; 0.333 0 0.667 1; 0.333 0 0.833 0.833; 0.167 0.167 0.667 1; 0.333 0 0.833 0.833; 0.167 0.167 0.667 1; 0.333 0 0.833 0.833; 0.167 0.167 0.667 1; 0.333 0 0.667 1" fill="freeze" /></path></g></g><g opacity="0.5" id="i17"><g transform="translate(521.25,870.25)"><g transform="scale(1,1)"><animateTransform repeatCount="indefinite" type="scale" attributeName="transform" dur="1.268s" begin="0s" calcMode="spline" values="1 1; 0.9 1; 1 1; 0.9 1; 1 1" keyTimes="0; 0.263158; 0.5; 0.763158; 1" keySplines="0.333 0 0.667 1; 0.333 0 0.667 1; 0.333 0 0.667 1; 0.333 0 0.667 1" fill="freeze" /><g transform="translate(18.75,-392.25)"><g id="i18"><path stroke-linecap="round" stroke-width="14" stroke="#000000" fill="#343434" d="M-230,392.25C-230,392.25,192.5,392.25,192.5,392.25" /></g></g></g></g></g><g id="i11"><g transform="translate(490.817,473.265)"><animateTransform repeatCount="indefinite" type="translate" attributeName="transform" dur="1.268s" begin="0s" calcMode="spline" values="490.817 473.265; 500.817 494.265; 509.817 473.765; 502.817 509.765; 490.88 473.265; 500.817 494.39; 509.817 473.765; 502.817 509.765; 490.817 473.265" keyTimes="0; 0.157895; 0.236842; 0.368421; 0.5; 0.631579; 0.736842; 0.894737; 1" keySplines="0.333 0 0.667 1; 0.333 0 0.667 1; 0.333 0 0.667 1; 0.333 0 0.667 1; 0.333 0 0.667 1; 0.333 0 0.667 1; 0.333 0 0.667 1; 0.333 0 0.667 1" fill="freeze" /><g transform="rotate(0)"><animateTransform repeatCount="indefinite" type="rotate" attributeName="transform" dur="1.268s" begin="0s" calcMode="spline" values="0; 5; 9; 7; 0; 4; 9; 7; 0" keyTimes="0; 0.157895; 0.236842; 0.368421; 0.5; 0.631579; 0.736842; 0.894737; 1" keySplines="0.333 0 0.667 1; 0.333 0 0.667 1; 0.333 0 0.667 1; 0.333 0 0.667 1; 0.333 0 0.667 1; 0.333 0 0.667 1; 0.333 0 0.667 1; 0.333 0 0.667 1" fill="freeze" /><g transform="scale(1.17,1.17) translate(-104.25,-104.25)"><g id="i2" transform="matrix(1,0,0,1,104.25,104.25)"><path fill="#343434" d="M104,0C104,57.438,57.438,104,0,104C-57.438,104,-104,57.438,-104,0C-104,-57.438,-57.438,-104,0,-104C57.438,-104,104,-57.438,104,0Z" /></g><g id="i3" transform="matrix(1,0,0,1,104.351,141.55)"><path fill="#efc02c" d="M-100.601,-10.724C-100.601,-10.724,100.601,-10.724,100.601,-10.724C100.601,-10.724,98.165,1.132,92.333,10.724C92.333,10.724,-92.33,10.724,-92.33,10.724C-92.33,10.724,-99.703,-1.763,-100.601,-10.724Z" /></g></g></g></g></g><g mask="url(#i1)" id="i11"><g transform="translate(490.817,473.265)"><animateTransform repeatCount="indefinite" type="translate" attributeName="transform" dur="1.268s" begin="0s" calcMode="spline" values="490.817 473.265; 500.817 494.265; 509.817 473.765; 502.817 509.765; 490.88 473.265; 500.817 494.39; 509.817 473.765; 502.817 509.765; 490.817 473.265" keyTimes="0; 0.157895; 0.236842; 0.368421; 0.5; 0.631579; 0.736842; 0.894737; 1" keySplines="0.333 0 0.667 1; 0.333 0 0.667 1; 0.333 0 0.667 1; 0.333 0 0.667 1; 0.333 0 0.667 1; 0.333 0 0.667 1; 0.333 0 0.667 1; 0.333 0 0.667 1" fill="freeze" /><g transform="rotate(0)"><animateTransform repeatCount="indefinite" type="rotate" attributeName="transform" dur="1.268s" begin="0s" calcMode="spline" values="0; 5; 9; 7; 0; 4; 9; 7; 0" keyTimes="0; 0.157895; 0.236842; 0.368421; 0.5; 0.631579; 0.736842; 0.894737; 1" keySplines="0.333 0 0.667 1; 0.333 0 0.667 1; 0.333 0 0.667 1; 0.333 0 0.667 1; 0.333 0 0.667 1; 0.333 0 0.667 1; 0.333 0 0.667 1; 0.333 0 0.667 1" fill="freeze" /><g transform="scale(1.17,1.17) translate(-104.25,-104.25)"><g id="i19"><g transform="translate(143.727,78.769)"><animateTransform repeatCount="indefinite" type="translate" attributeName="transform" dur="1.268s" begin="0s" calcMode="spline" values="143.727 78.769; 152.68 77.702; 166.614 75.687; 190.135 76.328; 185.614 75.687; 167.614 75.687; 152.614 75.687; 138.239 79.638" keyTimes="0; 0.157895; 0.236842; 0.5; 0.631579; 0.736842; 0.894737; 1" keySplines="0.333 0 0.667 1; 0.333 0 0.667 1; 0.333 0 0.667 1; 0.333 0 0.667 1; 0.333 0 0.667 1; 0.333 0 0.667 1; 0.333 0 0.667 1" fill="freeze" /><g transform="rotate(-16) scale(1,1) translate(-136.078,-35.268)"><g id="i20" transform="matrix(1,0,0,1,136.078,35.268)"><path fill="#efc02c" d="M55.236,2.066C54.536,20.776,29.238,35.018,-1.268,33.877C-31.773,32.735,-55.935,16.643,-55.235,-2.066C-54.535,-20.776,-29.238,-35.018,1.268,-33.877C31.773,-32.736,55.936,-16.644,55.236,2.066Z" /></g><g id="i3" transform="matrix(1,0,0,1,135.821,31.738)"><path fill="#000000" d="M-51.296,11.58C-51.296,11.58,-49.46,-7.724,-31.157,-16.378C-31.157,-16.378,-26.742,-7.711,-15.272,-8.815C-15.272,-8.815,-16.046,-6.719,-15.397,-5.458C-15.397,-5.458,-15.71,-8.274,-13.142,-9.85C-13.142,-9.85,-6.826,-14.771,-5.42,-26.286C-5.42,-26.286,0.549,-4.042,8.345,-25.771C8.345,-25.771,9.087,-15.43,13.9,-9.954C13.9,-9.954,17.266,-6.762,16.754,-4.272C16.754,-4.272,17.76,-5.071,17.158,-7.602C17.158,-7.602,27.383,-5.268,33.01,-14.117C33.01,-14.117,50.366,-3.99,51.296,15.418C51.296,15.418,23.61,-6.873,0.553,20.837C0.553,20.837,-0.556,26.286,-0.556,26.286C-0.556,26.286,-1.251,20.63,-1.251,20.63C-1.251,20.63,-19.7,-7.796,-51.296,11.58Z" /></g></g></g></g></g></g></g></g><g display="none" id="i21"><g transform="translate(490.817,473.265)"><animateTransform repeatCount="indefinite" type="translate" attributeName="transform" dur="1.268s" begin="0s" calcMode="spline" values="490.817 473.265; 500.817 494.265; 509.817 473.765; 502.817 509.765; 490.88 473.265; 500.817 494.39; 509.817 473.765; 502.817 509.765; 490.817 473.265" keyTimes="0; 0.157895; 0.236842; 0.368421; 0.5; 0.631579; 0.736842; 0.894737; 1" keySplines="0.333 0 0.667 1; 0.333 0 0.667 1; 0.333 0 0.667 1; 0.333 0 0.667 1; 0.333 0 0.667 1; 0.333 0 0.667 1; 0.333 0 0.667 1; 0.333 0 0.667 1" fill="freeze" /><g transform="rotate(0)"><animateTransform repeatCount="indefinite" type="rotate" attributeName="transform" dur="1.268s" begin="0s" calcMode="spline" values="0; 5; 9; 7; 0; 4; 9; 7; 0" keyTimes="0; 0.157895; 0.236842; 0.368421; 0.5; 0.631579; 0.736842; 0.894737; 1" keySplines="0.333 0 0.667 1; 0.333 0 0.667 1; 0.333 0 0.667 1; 0.333 0 0.667 1; 0.333 0 0.667 1; 0.333 0 0.667 1; 0.333 0 0.667 1; 0.333 0 0.667 1" fill="freeze" /><g transform="scale(1.17,1.17) translate(-104.25,-104.25)"><g id="i2" transform="matrix(1,0,0,1,104.25,104.25)"><path fill="#000000" d="M104,0C104,57.438,57.438,104,0,104C-57.438,104,-104,57.438,-104,0C-104,-57.438,-57.438,-104,0,-104C57.438,-104,104,-57.438,104,0Z" /></g><g id="i3" transform="matrix(1,0,0,1,104.351,141.55)"><path fill="#efc02c" d="M-100.601,-10.724C-100.601,-10.724,100.601,-10.724,100.601,-10.724C100.601,-10.724,98.165,1.132,92.333,10.724C92.333,10.724,-92.33,10.724,-92.33,10.724C-92.33,10.724,-99.703,-1.763,-100.601,-10.724Z" /></g></g></g></g></g><g id="i11"><g transform="translate(490.817,473.265)"><animateTransform repeatCount="indefinite" type="translate" attributeName="transform" dur="1.268s" begin="0s" calcMode="spline" values="490.817 473.265; 500.817 494.265; 509.817 473.765; 502.817 509.765; 490.88 473.265; 500.817 494.39; 509.817 473.765; 502.817 509.765; 490.817 473.265" keyTimes="0; 0.157895; 0.236842; 0.368421; 0.5; 0.631579; 0.736842; 0.894737; 1" keySplines="0.333 0 0.667 1; 0.333 0 0.667 1; 0.333 0 0.667 1; 0.333 0 0.667 1; 0.333 0 0.667 1; 0.333 0 0.667 1; 0.333 0 0.667 1; 0.333 0 0.667 1" fill="freeze" /><g transform="rotate(0)"><animateTransform repeatCount="indefinite" type="rotate" attributeName="transform" dur="1.268s" begin="0s" calcMode="spline" values="0; 5; 9; 7; 0; 4; 9; 7; 0" keyTimes="0; 0.157895; 0.236842; 0.368421; 0.5; 0.631579; 0.736842; 0.894737; 1" keySplines="0.333 0 0.667 1; 0.333 0 0.667 1; 0.333 0 0.667 1; 0.333 0 0.667 1; 0.333 0 0.667 1; 0.333 0 0.667 1; 0.333 0 0.667 1; 0.333 0 0.667 1" fill="freeze" /><g transform="scale(1.17,1.17) translate(-104.25,-104.25)"><g transform="matrix(0.855,0,0,0.855,-224.287,-124.548)" id="i22"><g id="i2" transform="matrix(1,0,0,1,273,334.428)"><path d="M53,-114.428C53,-114.428,-53,-27.858,16.429,114.428" stroke-miterlimit="10" stroke-linecap="round" stroke-width="60" stroke="#343434"><animate repeatCount="indefinite" attributeName="d" dur="1.268s" begin="0s" calcMode="spline" values="M53,-114.428C53,-114.428,-53,-27.858,16.429,114.428; M64.132,-113.395C64.132,-113.395,45.234,-4.784,-17.317,107.343; M78.948,-115.741C78.948,-115.741,130.628,-8.182,29.837,111.011; M102.647,-119.659C102.647,-119.659,193.571,-11.192,143.458,109.151; M115.647,-120.659C115.647,-120.659,204.509,-41.999,255.458,63.151; M106.529,-122.026C106.529,-122.026,109.281,-5.461,276.692,37.106; M85.113,-116.609C85.113,-116.609,23.811,26.962,225.498,65.464; M52.969,-107.625C52.969,-107.625,-58.902,16.785,101.969,117.909; M53,-114.428C53,-114.428,-53,-27.858,16.429,114.428" keyTimes="0; 0.157895; 0.236842; 0.368421; 0.5; 0.631579; 0.736842; 0.894737; 1" keySplines="0.333 0 0.667 1; 0.333 0 0.667 1; 0.333 0 0.667 1; 0.333 0 0.667 1; 0.333 0 0.667 1; 0.333 0 0.667 1; 0.333 0 0.667 1; 0.333 0 0.667 1" fill="freeze" /></path></g></g></g></g></g></g><g id="i11"><g transform="translate(490.817,473.265)"><animateTransform repeatCount="indefinite" type="translate" attributeName="transform" dur="1.268s" begin="0s" calcMode="spline" values="490.817 473.265; 500.817 494.265; 509.817 473.765; 502.817 509.765; 490.88 473.265; 500.817 494.39; 509.817 473.765; 502.817 509.765; 490.817 473.265" keyTimes="0; 0.157895; 0.236842; 0.368421; 0.5; 0.631579; 0.736842; 0.894737; 1" keySplines="0.333 0 0.667 1; 0.333 0 0.667 1; 0.333 0 0.667 1; 0.333 0 0.667 1; 0.333 0 0.667 1; 0.333 0 0.667 1; 0.333 0 0.667 1; 0.333 0 0.667 1" fill="freeze" /><g transform="rotate(0)"><animateTransform repeatCount="indefinite" type="rotate" attributeName="transform" dur="1.268s" begin="0s" calcMode="spline" values="0; 5; 9; 7; 0; 4; 9; 7; 0" keyTimes="0; 0.157895; 0.236842; 0.368421; 0.5; 0.631579; 0.736842; 0.894737; 1" keySplines="0.333 0 0.667 1; 0.333 0 0.667 1; 0.333 0 0.667 1; 0.333 0 0.667 1; 0.333 0 0.667 1; 0.333 0 0.667 1; 0.333 0 0.667 1; 0.333 0 0.667 1" fill="freeze" /><g transform="scale(1.17,1.17) translate(-104.25,-104.25)"><g id="i6"><g transform="translate(107.388,20.336)"><g transform="rotate(-7)"><animateTransform repeatCount="indefinite" type="rotate" attributeName="transform" dur="1.268s" begin="0s" calcMode="spline" values="-7; -16; -18; -4; -4; -15; -15; -10; -7" keyTimes="0; 0.157895; 0.236842; 0.368421; 0.5; 0.631579; 0.736842; 0.894737; 1" keySplines="0.333 0 0.667 1; 0.333 0 0.667 1; 0.333 0 0.667 1; 0.333 0 0.667 1; 0.333 0 0.667 1; 0.333 0 0.667 1; 0.333 0 0.667 1; 0.333 0 0.667 1" fill="freeze" /><g transform="scale(0.863,0.863) translate(-73.302,-177.809)"><g id="i23" transform="matrix(1,0,0,1,77.92,121.221)"><path fill="#343434" d="M-76.404,-2.293C-77.67,39.904,-44.489,75.139,-2.292,76.405C39.905,77.671,75.139,44.49,76.405,2.293C77.671,-39.904,44.49,-75.139,2.293,-76.405C-39.904,-77.671,-75.138,-44.49,-76.404,-2.293Z" /></g><g id="i24" transform="matrix(1,0,0,1,112.657,40.519)"><path fill="#343434" d="M21.475,31.1C21.475,31.1,-2.465,-36.198,-12.264,9.813C-12.264,9.813,-21.475,36.198,-21.475,36.198C-21.475,36.198,21.475,31.1,21.475,31.1Z" /></g><g id="i20" transform="matrix(1,0,0,1,32.306,50.859)"><path fill="#343434" d="M28.161,20.727C28.161,20.727,-28.161,50.609,-28.161,50.609C-28.161,50.609,-11.092,-50.609,11.52,-9.239" /></g><g id="i3" transform="matrix(1,0,0,1,70.42,64.619)"><path fill="#343434" d="M35.069,-20.447C35.069,-20.447,-35.069,-21.148,-35.069,-21.148C-35.069,-21.148,-17.463,10.952,-17.463,10.952C-17.463,10.952,18.386,21.148,18.386,21.148C18.386,21.148,27.772,12.309,28.578,8.825C29.384,5.341,35.069,-20.447,35.069,-20.447Z" /></g><g id="i2" transform="matrix(1,0,0,1,89.203,167.461)"><path fill="#f3c7b1" d="M-10.09,24.865C-10.09,24.865,5.443,24.992,5.443,24.992C26.313,25.162,43.369,8.381,43.539,-12.489C43.539,-12.489,43.557,-14.728,43.557,-14.728C43.601,-20.119,39.267,-24.525,33.876,-24.569C33.876,-24.569,-33.557,-25.118,-33.557,-25.118C-38.948,-25.162,-43.354,-20.828,-43.398,-15.437C-43.398,-15.437,-43.45,-9.043,-43.45,-9.043C-43.601,9.533,-28.665,24.714,-10.09,24.865Z" /></g></g></g></g></g></g></g></g></g><g id="i11"><g transform="translate(490.817,473.265)"><animateTransform repeatCount="indefinite" type="translate" attributeName="transform" dur="1.268s" begin="0s" calcMode="spline" values="490.817 473.265; 500.817 494.265; 509.817 473.765; 502.817 509.765; 490.88 473.265; 500.817 494.39; 509.817 473.765; 502.817 509.765; 490.817 473.265" keyTimes="0; 0.157895; 0.236842; 0.368421; 0.5; 0.631579; 0.736842; 0.894737; 1" keySplines="0.333 0 0.667 1; 0.333 0 0.667 1; 0.333 0 0.667 1; 0.333 0 0.667 1; 0.333 0 0.667 1; 0.333 0 0.667 1; 0.333 0 0.667 1; 0.333 0 0.667 1" fill="freeze" /><g transform="rotate(0)"><animateTransform repeatCount="indefinite" type="rotate" attributeName="transform" dur="1.268s" begin="0s" calcMode="spline" values="0; 5; 9; 7; 0; 4; 9; 7; 0" keyTimes="0; 0.157895; 0.236842; 0.368421; 0.5; 0.631579; 0.736842; 0.894737; 1" keySplines="0.333 0 0.667 1; 0.333 0 0.667 1; 0.333 0 0.667 1; 0.333 0 0.667 1; 0.333 0 0.667 1; 0.333 0 0.667 1; 0.333 0 0.667 1; 0.333 0 0.667 1" fill="freeze" /><g transform="scale(1.17,1.17) translate(-104.25,-104.25)"><g id="i6"><g transform="translate(107.388,20.336)"><g transform="rotate(-7)"><animateTransform repeatCount="indefinite" type="rotate" attributeName="transform" dur="1.268s" begin="0s" calcMode="spline" values="-7; -16; -18; -4; -4; -15; -15; -10; -7" keyTimes="0; 0.157895; 0.236842; 0.368421; 0.5; 0.631579; 0.736842; 0.894737; 1" keySplines="0.333 0 0.667 1; 0.333 0 0.667 1; 0.333 0 0.667 1; 0.333 0 0.667 1; 0.333 0 0.667 1; 0.333 0 0.667 1; 0.333 0 0.667 1; 0.333 0 0.667 1" fill="freeze" /><g transform="scale(0.863,0.863) translate(-73.302,-177.809)"><g transform="matrix(1,0,0,1,52.066,109.898)" id="i25"><g id="i3" transform="matrix(1,0,0,1,15.214,15.214)"><path fill="#ffffff" d="M-14.72,-0.442C-14.964,7.688,-8.571,14.476,-0.442,14.72C7.688,14.964,14.476,8.571,14.72,0.441C14.964,-7.688,8.571,-14.477,0.442,-14.72C-7.688,-14.964,-14.476,-8.572,-14.72,-0.442Z" /></g><g id="i2" transform="matrix(1,0,0,1,17.913,18.803)"><path fill="#000000" d="M-10.514,-0.316C-10.688,5.491,-6.122,10.34,-0.315,10.514C5.492,10.688,10.34,6.123,10.515,0.316C10.689,-5.491,6.122,-10.34,0.315,-10.514C-5.492,-10.688,-10.34,-6.123,-10.514,-0.316Z" /></g></g></g></g></g></g></g></g></g></g><g mask="url(#i5)" id="i11"><g transform="translate(490.817,473.265)"><animateTransform repeatCount="indefinite" type="translate" attributeName="transform" dur="1.268s" begin="0s" calcMode="spline" values="490.817 473.265; 500.817 494.265; 509.817 473.765; 502.817 509.765; 490.88 473.265; 500.817 494.39; 509.817 473.765; 502.817 509.765; 490.817 473.265" keyTimes="0; 0.157895; 0.236842; 0.368421; 0.5; 0.631579; 0.736842; 0.894737; 1" keySplines="0.333 0 0.667 1; 0.333 0 0.667 1; 0.333 0 0.667 1; 0.333 0 0.667 1; 0.333 0 0.667 1; 0.333 0 0.667 1; 0.333 0 0.667 1; 0.333 0 0.667 1" fill="freeze" /><g transform="rotate(0)"><animateTransform repeatCount="indefinite" type="rotate" attributeName="transform" dur="1.268s" begin="0s" calcMode="spline" values="0; 5; 9; 7; 0; 4; 9; 7; 0" keyTimes="0; 0.157895; 0.236842; 0.368421; 0.5; 0.631579; 0.736842; 0.894737; 1" keySplines="0.333 0 0.667 1; 0.333 0 0.667 1; 0.333 0 0.667 1; 0.333 0 0.667 1; 0.333 0 0.667 1; 0.333 0 0.667 1; 0.333 0 0.667 1; 0.333 0 0.667 1" fill="freeze" /><g transform="scale(1.17,1.17) translate(-104.25,-104.25)"><g id="i6"><g transform="translate(107.388,20.336)"><g transform="rotate(-7)"><animateTransform repeatCount="indefinite" type="rotate" attributeName="transform" dur="1.268s" begin="0s" calcMode="spline" values="-7; -16; -18; -4; -4; -15; -15; -10; -7" keyTimes="0; 0.157895; 0.236842; 0.368421; 0.5; 0.631579; 0.736842; 0.894737; 1" keySplines="0.333 0 0.667 1; 0.333 0 0.667 1; 0.333 0 0.667 1; 0.333 0 0.667 1; 0.333 0 0.667 1; 0.333 0 0.667 1; 0.333 0 0.667 1; 0.333 0 0.667 1" fill="freeze" /><g transform="scale(0.863,0.863) translate(-73.302,-177.809)"><g transform="matrix(1.08,0,0,1.08,50.849,108.681)" id="i7"><g transform="matrix(0.983,0.121,-0.121,0.983,46.062,235.467)" id="i26"><g id="i18"><path d="M-71.5,-260.5C-110.5,-254,-90,-149.5,-83,-215.5C-68.5,-264,-32,-220.5,-32,-220.5C-32,-220.5,-32.5,-267,-71.5,-260.5Z" fill="#343434"><animate repeatCount="indefinite" attributeName="d" dur="1.268s" begin="0s" calcMode="spline" values="M-71.5,-260.5C-110.5,-254,-90,-149.5,-83,-215.5C-68.5,-264,-32,-220.5,-32,-220.5C-32,-220.5,-32.5,-267,-71.5,-260.5Z; M-71.5,-260.5C-110.5,-254,-90,-149.5,-83,-215.5C-68.5,-264,-32,-220.5,-32,-220.5C-32,-220.5,-32.5,-267,-71.5,-260.5Z; M-71.5,-260.5C-110.5,-254,-101.016,-164.624,-83,-215.5C-61.42,-177.834,-32,-220.5,-32,-220.5C-32,-220.5,-32.5,-267,-71.5,-260.5Z; M-71.5,-260.5C-110.5,-254,-101.016,-164.624,-83,-215.5C-64.984,-266.376,-32,-220.5,-32,-220.5C-32,-220.5,-32.5,-267,-71.5,-260.5Z; M-71.5,-260.5C-110.5,-254,-101.016,-164.624,-83,-215.5C-64.984,-266.376,-32,-220.5,-32,-220.5C-32,-220.5,-32.5,-267,-71.5,-260.5Z" keyTimes="0; 0.342105; 0.447368; 0.552632; 1" keySplines="0 0 1 1; 0.333 0 0.667 1; 0.333 0 0.667 1; 0 0 1 1" fill="freeze" /></path></g></g></g></g></g></g></g></g></g></g></g><g display="none" id="i11"><g transform="translate(490.817,473.265)"><animateTransform repeatCount="indefinite" type="translate" attributeName="transform" dur="1.268s" begin="0s" calcMode="spline" values="490.817 473.265; 500.817 494.265; 509.817 473.765; 502.817 509.765; 490.88 473.265; 500.817 494.39; 509.817 473.765; 502.817 509.765; 490.817 473.265" keyTimes="0; 0.157895; 0.236842; 0.368421; 0.5; 0.631579; 0.736842; 0.894737; 1" keySplines="0.333 0 0.667 1; 0.333 0 0.667 1; 0.333 0 0.667 1; 0.333 0 0.667 1; 0.333 0 0.667 1; 0.333 0 0.667 1; 0.333 0 0.667 1; 0.333 0 0.667 1" fill="freeze" /><g transform="rotate(0)"><animateTransform repeatCount="indefinite" type="rotate" attributeName="transform" dur="1.268s" begin="0s" calcMode="spline" values="0; 5; 9; 7; 0; 4; 9; 7; 0" keyTimes="0; 0.157895; 0.236842; 0.368421; 0.5; 0.631579; 0.736842; 0.894737; 1" keySplines="0.333 0 0.667 1; 0.333 0 0.667 1; 0.333 0 0.667 1; 0.333 0 0.667 1; 0.333 0 0.667 1; 0.333 0 0.667 1; 0.333 0 0.667 1; 0.333 0 0.667 1" fill="freeze" /><g transform="scale(1.17,1.17) translate(-104.25,-104.25)"><g id="i6"><g transform="translate(107.388,20.336)"><g transform="rotate(-7)"><animateTransform repeatCount="indefinite" type="rotate" attributeName="transform" dur="1.268s" begin="0s" calcMode="spline" values="-7; -16; -18; -4; -4; -15; -15; -10; -7" keyTimes="0; 0.157895; 0.236842; 0.368421; 0.5; 0.631579; 0.736842; 0.894737; 1" keySplines="0.333 0 0.667 1; 0.333 0 0.667 1; 0.333 0 0.667 1; 0.333 0 0.667 1; 0.333 0 0.667 1; 0.333 0 0.667 1; 0.333 0 0.667 1; 0.333 0 0.667 1" fill="freeze" /><g transform="scale(0.863,0.863) translate(-73.302,-177.809)"><g transform="matrix(1.08,0,0,1.08,50.849,108.681)" id="i7"><g id="i3" transform="matrix(1,0,0,1,15.214,15.214)"><path fill="#ffffff" d="M-14.72,-0.442C-14.964,7.688,-8.571,14.476,-0.442,14.72C7.688,14.964,14.476,8.571,14.72,0.441C14.964,-7.688,8.571,-14.477,0.442,-14.72C-7.688,-14.964,-14.476,-8.572,-14.72,-0.442Z" /></g><g id="i2" transform="matrix(1,0,0,1,17.913,18.803)"><path fill="#000000" d="M-10.514,-0.316C-10.688,5.491,-6.122,10.34,-0.315,10.514C5.492,10.688,10.34,6.123,10.515,0.316C10.689,-5.491,6.122,-10.34,0.315,-10.514C-5.492,-10.688,-10.34,-6.123,-10.514,-0.316Z" /></g></g></g></g></g></g></g></g></g></g><g id="i11"><g transform="translate(490.817,473.265)"><animateTransform repeatCount="indefinite" type="translate" attributeName="transform" dur="1.268s" begin="0s" calcMode="spline" values="490.817 473.265; 500.817 494.265; 509.817 473.765; 502.817 509.765; 490.88 473.265; 500.817 494.39; 509.817 473.765; 502.817 509.765; 490.817 473.265" keyTimes="0; 0.157895; 0.236842; 0.368421; 0.5; 0.631579; 0.736842; 0.894737; 1" keySplines="0.333 0 0.667 1; 0.333 0 0.667 1; 0.333 0 0.667 1; 0.333 0 0.667 1; 0.333 0 0.667 1; 0.333 0 0.667 1; 0.333 0 0.667 1; 0.333 0 0.667 1" fill="freeze" /><g transform="rotate(0)"><animateTransform repeatCount="indefinite" type="rotate" attributeName="transform" dur="1.268s" begin="0s" calcMode="spline" values="0; 5; 9; 7; 0; 4; 9; 7; 0" keyTimes="0; 0.157895; 0.236842; 0.368421; 0.5; 0.631579; 0.736842; 0.894737; 1" keySplines="0.333 0 0.667 1; 0.333 0 0.667 1; 0.333 0 0.667 1; 0.333 0 0.667 1; 0.333 0 0.667 1; 0.333 0 0.667 1; 0.333 0 0.667 1; 0.333 0 0.667 1" fill="freeze" /><g transform="scale(1.17,1.17) translate(-104.25,-104.25)"><g id="i6"><g transform="translate(107.388,20.336)"><g transform="rotate(-7)"><animateTransform repeatCount="indefinite" type="rotate" attributeName="transform" dur="1.268s" begin="0s" calcMode="spline" values="-7; -16; -18; -4; -4; -15; -15; -10; -7" keyTimes="0; 0.157895; 0.236842; 0.368421; 0.5; 0.631579; 0.736842; 0.894737; 1" keySplines="0.333 0 0.667 1; 0.333 0 0.667 1; 0.333 0 0.667 1; 0.333 0 0.667 1; 0.333 0 0.667 1; 0.333 0 0.667 1; 0.333 0 0.667 1; 0.333 0 0.667 1" fill="freeze" /><g transform="scale(0.863,0.863) translate(-73.302,-177.809)"><g transform="matrix(1,0,0,1,105.338,111.496)" id="i27"><g id="i3" transform="matrix(1,0,0,1,15.214,15.214)"><path fill="#ffffff" d="M-14.72,-0.442C-14.964,7.688,-8.571,14.476,-0.442,14.72C7.688,14.964,14.476,8.571,14.72,0.441C14.964,-7.688,8.571,-14.477,0.442,-14.721C-7.688,-14.964,-14.476,-8.572,-14.72,-0.442Z" /></g><g id="i2" transform="matrix(1,0,0,1,17.913,18.803)"><path fill="#000000" d="M-10.514,-0.316C-10.688,5.491,-6.122,10.34,-0.315,10.514C5.492,10.688,10.34,6.123,10.515,0.316C10.689,-5.491,6.122,-10.34,0.315,-10.514C-5.492,-10.688,-10.34,-6.123,-10.514,-0.316Z" /></g></g></g></g></g></g></g></g></g></g><g mask="url(#i9)" id="i11"><g transform="translate(490.817,473.265)"><animateTransform repeatCount="indefinite" type="translate" attributeName="transform" dur="1.268s" begin="0s" calcMode="spline" values="490.817 473.265; 500.817 494.265; 509.817 473.765; 502.817 509.765; 490.88 473.265; 500.817 494.39; 509.817 473.765; 502.817 509.765; 490.817 473.265" keyTimes="0; 0.157895; 0.236842; 0.368421; 0.5; 0.631579; 0.736842; 0.894737; 1" keySplines="0.333 0 0.667 1; 0.333 0 0.667 1; 0.333 0 0.667 1; 0.333 0 0.667 1; 0.333 0 0.667 1; 0.333 0 0.667 1; 0.333 0 0.667 1; 0.333 0 0.667 1" fill="freeze" /><g transform="rotate(0)"><animateTransform repeatCount="indefinite" type="rotate" attributeName="transform" dur="1.268s" begin="0s" calcMode="spline" values="0; 5; 9; 7; 0; 4; 9; 7; 0" keyTimes="0; 0.157895; 0.236842; 0.368421; 0.5; 0.631579; 0.736842; 0.894737; 1" keySplines="0.333 0 0.667 1; 0.333 0 0.667 1; 0.333 0 0.667 1; 0.333 0 0.667 1; 0.333 0 0.667 1; 0.333 0 0.667 1; 0.333 0 0.667 1; 0.333 0 0.667 1" fill="freeze" /><g transform="scale(1.17,1.17) translate(-104.25,-104.25)"><g id="i6"><g transform="translate(107.388,20.336)"><g transform="rotate(-7)"><animateTransform repeatCount="indefinite" type="rotate" attributeName="transform" dur="1.268s" begin="0s" calcMode="spline" values="-7; -16; -18; -4; -4; -15; -15; -10; -7" keyTimes="0; 0.157895; 0.236842; 0.368421; 0.5; 0.631579; 0.736842; 0.894737; 1" keySplines="0.333 0 0.667 1; 0.333 0 0.667 1; 0.333 0 0.667 1; 0.333 0 0.667 1; 0.333 0 0.667 1; 0.333 0 0.667 1; 0.333 0 0.667 1; 0.333 0 0.667 1" fill="freeze" /><g transform="scale(0.863,0.863) translate(-73.302,-177.809)"><g transform="matrix(1.08,0,0,1.08,104.121,110.279)" id="i10"><g transform="matrix(0.983,0.121,-0.121,0.983,-7.211,233.869)" id="i28"><g id="i18"><path d="M-23,-259.5C-57.5,-244,-27.5,-163,-25,-219.5C-18.5,-272.5,21,-226,21,-226C21,-226,11.5,-275,-23,-259.5Z" fill="#343434"><animate repeatCount="indefinite" attributeName="d" dur="1.268s" begin="0s" calcMode="spline" values="M-23,-259.5C-57.5,-244,-27.5,-163,-25,-219.5C-18.5,-272.5,21,-226,21,-226C21,-226,11.5,-275,-23,-259.5Z; M-23,-259.5C-57.5,-244,-27.5,-163,-25,-219.5C-18.5,-272.5,21,-226,21,-226C21,-226,11.5,-275,-23,-259.5Z; M-23,-259.5C-57.5,-244,-27.5,-163,-25,-219.5C-2.812,-181.048,21,-226,21,-226C21,-226,11.5,-275,-23,-259.5Z; M-23,-259.5C-57.5,-244,-27.5,-163,-25,-219.5C-18.5,-272.5,21,-226,21,-226C21,-226,11.5,-275,-23,-259.5Z; M-23,-259.5C-57.5,-244,-27.5,-163,-25,-219.5C-18.5,-272.5,21,-226,21,-226C21,-226,11.5,-275,-23,-259.5Z" keyTimes="0; 0.342105; 0.447368; 0.552632; 1" keySplines="0 0 1 1; 0.333 0 0.667 1; 0.333 0 0.667 1; 0 0 1 1" fill="freeze" /></path></g></g></g></g></g></g></g></g></g></g></g><g display="none" id="i11"><g transform="translate(490.817,473.265)"><animateTransform repeatCount="indefinite" type="translate" attributeName="transform" dur="1.268s" begin="0s" calcMode="spline" values="490.817 473.265; 500.817 494.265; 509.817 473.765; 502.817 509.765; 490.88 473.265; 500.817 494.39; 509.817 473.765; 502.817 509.765; 490.817 473.265" keyTimes="0; 0.157895; 0.236842; 0.368421; 0.5; 0.631579; 0.736842; 0.894737; 1" keySplines="0.333 0 0.667 1; 0.333 0 0.667 1; 0.333 0 0.667 1; 0.333 0 0.667 1; 0.333 0 0.667 1; 0.333 0 0.667 1; 0.333 0 0.667 1; 0.333 0 0.667 1" fill="freeze" /><g transform="rotate(0)"><animateTransform repeatCount="indefinite" type="rotate" attributeName="transform" dur="1.268s" begin="0s" calcMode="spline" values="0; 5; 9; 7; 0; 4; 9; 7; 0" keyTimes="0; 0.157895; 0.236842; 0.368421; 0.5; 0.631579; 0.736842; 0.894737; 1" keySplines="0.333 0 0.667 1; 0.333 0 0.667 1; 0.333 0 0.667 1; 0.333 0 0.667 1; 0.333 0 0.667 1; 0.333 0 0.667 1; 0.333 0 0.667 1; 0.333 0 0.667 1" fill="freeze" /><g transform="scale(1.17,1.17) translate(-104.25,-104.25)"><g id="i6"><g transform="translate(107.388,20.336)"><g transform="rotate(-7)"><animateTransform repeatCount="indefinite" type="rotate" attributeName="transform" dur="1.268s" begin="0s" calcMode="spline" values="-7; -16; -18; -4; -4; -15; -15; -10; -7" keyTimes="0; 0.157895; 0.236842; 0.368421; 0.5; 0.631579; 0.736842; 0.894737; 1" keySplines="0.333 0 0.667 1; 0.333 0 0.667 1; 0.333 0 0.667 1; 0.333 0 0.667 1; 0.333 0 0.667 1; 0.333 0 0.667 1; 0.333 0 0.667 1; 0.333 0 0.667 1" fill="freeze" /><g transform="scale(0.863,0.863) translate(-73.302,-177.809)"><g transform="matrix(1.08,0,0,1.08,104.121,110.279)" id="i10"><g id="i3" transform="matrix(1,0,0,1,15.214,15.214)"><path fill="#ffffff" d="M-14.72,-0.442C-14.964,7.688,-8.571,14.476,-0.442,14.72C7.688,14.964,14.476,8.571,14.72,0.441C14.964,-7.688,8.571,-14.477,0.442,-14.721C-7.688,-14.964,-14.476,-8.572,-14.72,-0.442Z" /></g><g id="i2" transform="matrix(1,0,0,1,17.913,18.803)"><path fill="#000000" d="M-10.514,-0.316C-10.688,5.491,-6.122,10.34,-0.315,10.514C5.492,10.688,10.34,6.123,10.515,0.316C10.689,-5.491,6.122,-10.34,0.315,-10.514C-5.492,-10.688,-10.34,-6.123,-10.514,-0.316Z" /></g></g></g></g></g></g></g></g></g></g><g id="i11"><g transform="translate(490.817,473.265)"><animateTransform repeatCount="indefinite" type="translate" attributeName="transform" dur="1.268s" begin="0s" calcMode="spline" values="490.817 473.265; 500.817 494.265; 509.817 473.765; 502.817 509.765; 490.88 473.265; 500.817 494.39; 509.817 473.765; 502.817 509.765; 490.817 473.265" keyTimes="0; 0.157895; 0.236842; 0.368421; 0.5; 0.631579; 0.736842; 0.894737; 1" keySplines="0.333 0 0.667 1; 0.333 0 0.667 1; 0.333 0 0.667 1; 0.333 0 0.667 1; 0.333 0 0.667 1; 0.333 0 0.667 1; 0.333 0 0.667 1; 0.333 0 0.667 1" fill="freeze" /><g transform="rotate(0)"><animateTransform repeatCount="indefinite" type="rotate" attributeName="transform" dur="1.268s" begin="0s" calcMode="spline" values="0; 5; 9; 7; 0; 4; 9; 7; 0" keyTimes="0; 0.157895; 0.236842; 0.368421; 0.5; 0.631579; 0.736842; 0.894737; 1" keySplines="0.333 0 0.667 1; 0.333 0 0.667 1; 0.333 0 0.667 1; 0.333 0 0.667 1; 0.333 0 0.667 1; 0.333 0 0.667 1; 0.333 0 0.667 1; 0.333 0 0.667 1" fill="freeze" /><g transform="scale(1.17,1.17) translate(-104.25,-104.25)"><g id="i6"><g transform="translate(107.388,20.336)"><g transform="rotate(-7)"><animateTransform repeatCount="indefinite" type="rotate" attributeName="transform" dur="1.268s" begin="0s" calcMode="spline" values="-7; -16; -18; -4; -4; -15; -15; -10; -7" keyTimes="0; 0.157895; 0.236842; 0.368421; 0.5; 0.631579; 0.736842; 0.894737; 1" keySplines="0.333 0 0.667 1; 0.333 0 0.667 1; 0.333 0 0.667 1; 0.333 0 0.667 1; 0.333 0 0.667 1; 0.333 0 0.667 1; 0.333 0 0.667 1; 0.333 0 0.667 1" fill="freeze" /><g transform="scale(0.863,0.863) translate(-73.302,-177.809)"><g transform="matrix(1,0,0,1,75.872,157.357)" id="i29"><g id="i2"><path stroke-miterlimit="10" stroke-linecap="round" stroke-width="10" stroke="#000000" d="M33.752,5C33.752,5,5,5,5,5" /></g></g></g></g></g></g></g></g></g></g></svg>